<svg xmlns="http://www.w3.org/2000/svg" viewBox="0 0 1471.52 653.56"><defs><style>.a,.b{fill:none;stroke-linecap:round;stroke-width:3px}.a{stroke:#e1e4e8}.b{stroke:#c8e1ff;stroke-linejoin:round}.c{fill:#e1e4e8}</style></defs><title>services-codelines</title><path class="a" d="M46.19 619.11h59.82a19.16 19.16 0 0 0 19.16-19.17v-42M126.04 216.77v5.17a10.68 10.68 0 0 0 10.68 10.68h42.05a20 20 0 0 1 20 20v4.43"/><path class="b" d="M180.86 125.5l12.8 7.39v14.77l-12.8 7.39-12.8-7.39v-14.77l12.8-7.39z"/><path class="a" d="M109.59 465.77h44.85M215.69 211.41h63.51M413.69 28.17h42.81M321.57 28.43h80.27M329.58 48.5h33.68M296.51 48.5h15.58M147.68 211.41h31.51M215.94 222.5h31.5M215.68 235.43h19.73M97.68 258.43h39M17.12 534.93h75.57M65.05 415.1h15.51M88.19 465.77h8M156.12 534.93h75.57M177.62 557.69h75.57M245.12 534.93h20.06M83.14 557.69h18.09M1.5 557.69h36.12M9.24 496.56h36.12M60.12 546.31h36.15M97.68 270.43h20.51M1292.23 403.88h44.25a20 20 0 0 1 20 20v14.45M1317.42 639.13h72.11M1148.92 639.13h38.15M1059.28 639.13h21.06M978.36 639.13h70.87M1167.33 618.82h52.24M1128.42 618.82h23.92M1054.07 618.82h66M1265.09 443.43h49.11M1295.68 463.43h43.11M1323.68 443.43h13.11M1360.47 342.93h23M1257.33 293.02h22.51M1334.97 358.59h51M1357.11 375.17h20.5M1297.17 375.17h44.29M1326.29 272.82h20M1332.29 272.82l19 20M1325.51 292.82h64.8M1373.68 462.43h56M1381.68 482.43h33M1395.68 481.43l19-19M1345.93 496.56h15.7M1363.29 272.82h13M1420.04 272.82h29M1426 342.93h44M1316.68 580.43h8.11M1299.53 618.82h30.26"/><path class="b" d="M198.76 265.81l12.8 7.38v14.78l-12.8 7.39-12.79-7.39v-14.78l12.79-7.38zM124.83 520.15l12.8 7.39v14.78l-12.8 7.39-12.8-7.39v-14.78l12.8-7.39zM177.29 404.87l12.79 7.39v14.78l-12.79 7.38-12.8-7.38v-14.78l12.8-7.39z"/><path class="a" d="M126.04 1.5v150.35a17.43 17.43 0 0 1-17.43 17.43H83.75a20.22 20.22 0 0 0-20.21 20.22v62.83a20.22 20.22 0 0 1-20.22 20.17H23.71M361.68 28.43l-20.22 20.22"/><path class="c" d="M316.57 24.66a3.51 3.51 0 1 1-3.51 3.51 3.51 3.51 0 0 1 3.51-3.51m0-3a6.51 6.51 0 1 0 6.51 6.51 6.51 6.51 0 0 0-6.51-6.51zM126.04 207.9a3.51 3.51 0 1 1-3.51 3.51 3.51 3.51 0 0 1 3.51-3.51m0-3a6.51 6.51 0 1 0 6.51 6.51 6.51 6.51 0 0 0-6.51-6.51zM236.02 136.77a3.51 3.51 0 1 1-3.51 3.51 3.51 3.51 0 0 1 3.51-3.51m0-3a6.51 6.51 0 1 0 6.51 6.51 6.51 6.51 0 0 0-6.51-6.51z"/><path class="a" d="M167.37 89.35h59.28M152.81 48.52h29.38M197.01 48.52h21.83M258.84 1.5v44.77a22.55 22.55 0 0 1-22.55 22.55h-87.7a22.55 22.55 0 0 1-22.55-22.55V13.83M8.07 48.52h46.19M67.37 48.52h25.18M61.61 68.82h18.51M54.61 109.65h45.63M160.34 140.28h-19a15.3 15.3 0 0 1-15.3-15.3v-20.65M91.07 129.95h18.19M14.58 211.41h24.28M7.07 231.94h41.59M58.07 353.97h21.89M63.91 437.02h-38M121.31 437.02h-40.3M201.5 140.28h28M177.29 441.77v34a14 14 0 0 1-14 14l-24.49.06a14 14 0 0 0-14 14v9.25M436.59 639.13h-68.86M355.88 639.13h-67.4M270.29 639.13h-56.03M100.84 639.13h-75M185.78 639.13h-17.93M100.84 619.11h80.26a17.14 17.14 0 0 1 17.14 17.11v15.85"/><path class="c" d="M40.68 615.6a3.51 3.51 0 1 1-3.51 3.51 3.51 3.51 0 0 1 3.51-3.51m0-3a6.51 6.51 0 1 0 6.51 6.51 6.51 6.51 0 0 0-6.51-6.51zM196.26 574.71a3.51 3.51 0 1 1-3.51 3.51 3.51 3.51 0 0 1 3.51-3.51m0-3a6.51 6.51 0 1 0 6.51 6.51 6.51 6.51 0 0 0-6.51-6.51zM58.22 390.29a3.51 3.51 0 1 1-3.51 3.51 3.51 3.51 0 0 1 3.51-3.51m0-3a6.51 6.51 0 1 0 6.51 6.51 6.51 6.51 0 0 0-6.51-6.51z"/><path class="a" d="M328.99 598.52h41.36M307.08 618.32h18.16M173.11 578.18h18.17M335.51 618.32h18.16M8.07 333.67h48.58M38.37 293.07h39.17M95.22 353.97h36.79M186.54 489.77h25.86M1405.18 366.67v69a20.24 20.24 0 0 0 20.24 20.24h29.57M1283.25 150.5h7.59a20.24 20.24 0 0 1 20.24 20.24v62.47a20.24 20.24 0 0 0 20.24 20.24h53.62a20.24 20.24 0 0 1 20.24 20.24v46.81M1212.07 2.59v127.65a20.24 20.24 0 0 0 20.24 20.26h9.84"/><path class="b" d="M1262.49 135.7l12.8 7.39v14.78l-12.8 7.39-12.8-7.39v-14.78l12.8-7.39zM1405.17 328.22l12.8 7.39v14.78l-12.8 7.38-12.79-7.38v-14.78l12.79-7.39zM1302.67 278.04l12.8 7.39v14.78l-12.8 7.39-12.79-7.39v-14.78l12.79-7.39zM1356.47 543.12l12.8 7.38v14.78l-12.8 7.39-12.8-7.39V550.5l12.8-7.38z"/><path class="a" d="M1334.79 557.68h-23a17.86 17.86 0 0 0-17.86 17.82v25.41a17.86 17.86 0 0 1-17.86 17.86h-31.56M1445.29 557.68h-67.52"/><path class="c" d="M1239.34 615.31a3.51 3.51 0 1 1-3.51 3.51 3.51 3.51 0 0 1 3.51-3.51m0-3a6.51 6.51 0 1 0 6.51 6.51 6.51 6.51 0 0 0-6.51-6.51z"/><path class="a" d="M1361.29 129.95h15.58"/><path class="c" d="M1383.39 126.44a3.51 3.51 0 1 1-3.51 3.51 3.51 3.51 0 0 1 3.51-3.51m0-3a6.51 6.51 0 1 0 6.51 6.51 6.51 6.51 0 0 0-6.51-6.51zM1251.9 289.31a3.51 3.51 0 1 1-3.51 3.51 3.51 3.51 0 0 1 3.51-3.51m0-3a6.51 6.51 0 1 0 6.51 6.51 6.51 6.51 0 0 0-6.51-6.51zM1356.47 439.92a3.51 3.51 0 1 1-3.51 3.51 3.51 3.51 0 0 1 3.51-3.51m0-3a6.51 6.51 0 1 0 6.51 6.51 6.51 6.51 0 0 0-6.51-6.51z"/><path class="a" d="M198.77 303.33a15.17 15.17 0 0 1-15.17 15.17h-23.76a15.17 15.17 0 0 0-15.17 15.17v45a15.17 15.17 0 0 1-15.17 15.17H63.91M166.87 333.67h20.2M157.46 353.97h27.27M191.26 353.97h10.5M152.96 394.8h11.86M103.71 374.5h29.81M1220.71 537.39h59.59M1293.07 537.39h32.63M1192.07 598.52h19.51M1261.45 557.69h16.29M1274.75 517.09h49M1291.13 496.56h36.55M1314.67 496.56l-20.53 20.53M981.07 28.18h117M1112.57 28.18h40.32M1291.86 28.18h33.62M1446.63 28.18h-92.86a20.27 20.27 0 0 0-20.26 20.32M1311.07 48.52h66.57M1388.6 48.52h15.89M1453.34 109.65h-123.25a19 19 0 0 0-19 19v50.85M1069.89 48.52h98.25M1166.65 89.35h29.84M1243.41 89.35h34.33M1286.37 89.35h54.7M1421.07 89.35H1449M1323.07 68.82h32.09M1338.29 68.82l-21.27 21.27M1117.07 68.82h25.26M1179.89 48.52h18.44M1129.7 68.82a20.3 20.3 0 0 1 20.3-20.3h2.9M1403.34 191.15h-44.03M1420.29 170.85h-34.61M1396.28 170.85a20.3 20.3 0 0 1-20.3 20.3h-2.9M1323.07 150.48h12.07M1348.71 150.48h38.28M1322.48 211.41h31.68M1367.19 211.41h13.55M1323.07 231.94h17.25M1352.16 231.94h40.49M1424.88 231.94h23.13M1247.07 231.94h15.42M1272.66 231.94h25.67M1324.35 358.59h-10.76M1334.39 517.09H1395M1342.2 618.82h16.44M1371.78 598.52h38.58M1422.23 598.52h22.19"/></svg>